# xmcd
#
# Track frame offsets:
#	150
#	13244
#	33908
#	56602
#	75194
#	92226
#	108858
#	124308
#	138483
#	157770
#	167909
#
# Disc length: 2396 seconds
# Revision: 0
# Processed by: cddbd v1.5.2PL0 Copyright (c) Steve Scherf et al.
# Submitted via: dBpowerAMP V12.0
#
DISCID=82095a0b
DTITLE=Rich Brown Blues - Down a Good Road
DYEAR=2013
DGENRE=Blues
TTITLE0=Bare Ass And Loaded
TTITLE1=No Place to go
TTITLE2=Crazy I'd Leave
TTITLE3=Change in Seasons
TTITLE4=Forgive And Forget
TTITLE5=Clueless Guy
TTITLE6=Number Three Blues
TTITLE7=Don't Take my Happy
TTITLE8=Landlocked Surfing Blues
TTITLE9=Bethel Blues
TTITLE10=Swamp Stomp
EXTD=
EXTT0=
EXTT1=
EXTT2=
EXTT3=
EXTT4=
EXTT5=
EXTT6=
EXTT7=
EXTT8=
EXTT9=
EXTT10=
PLAYORDER=
